<?xml version="1.0" standalone="no"?>
<!DOCTYPE svg PUBLIC "-//W3C//DTD SVG 20010904//EN"
 "http://www.w3.org/TR/2001/REC-SVG-20010904/DTD/svg10.dtd">
<svg version="1.0" xmlns="http://www.w3.org/2000/svg"
 width="300.000000pt" height="403.000000pt" viewBox="0 0 300.000000 403.000000"
 preserveAspectRatio="xMidYMid meet">
<metadata>
Created by potrace 1.10, written by Peter Selinger 2001-2011
</metadata>
<g transform="translate(0.000000,403.000000) scale(0.100000,-0.100000)"
fill="#000000" stroke="none">
<path d="M1327 3289 c-25 -28 -19 -30 28 -8 22 10 35 19 28 19 -6 0 -17 2 -25
5 -7 3 -21 -4 -31 -16z"/>
<path d="M1225 3280 c-22 -11 -65 -30 -95 -44 -44 -20 -49 -24 -25 -22 17 2
54 16 83 31 40 21 56 25 65 16 8 -8 6 -11 -10 -11 -12 0 -35 -12 -51 -27 -73
-69 -81 -75 -102 -68 -14 4 -20 2 -20 -8 0 -9 6 -17 13 -20 12 -4 48 10 57 23
3 4 23 18 45 32 54 34 97 76 83 80 -7 3 -4 10 6 21 23 23 3 21 -49 -3z"/>
<path d="M1411 3294 c0 -7 -19 -19 -41 -28 -41 -16 -53 -29 -22 -24 10 2 16
-2 14 -11 -2 -11 2 -11 21 2 14 9 46 17 71 19 25 2 46 6 46 9 0 12 -25 17 -52
12 -20 -4 -27 0 -31 14 -3 10 -5 13 -6 7z"/>
<path d="M1635 3260 c-4 -6 4 -14 17 -19 l23 -10 -23 0 c-13 -1 -20 -5 -17
-11 10 -16 -23 -11 -65 10 -47 24 -60 25 -60 5 0 -8 9 -15 19 -15 11 0 26 -8
33 -17 13 -18 87 -57 94 -50 2 2 -16 14 -41 27 -46 24 -76 51 -39 35 10 -4 30
-10 44 -13 14 -3 27 -8 30 -12 3 -4 23 -17 46 -28 41 -21 75 -52 56 -52 -5 0
-15 6 -21 14 -11 14 -51 29 -51 19 0 -8 64 -58 71 -56 4 1 15 -8 25 -20 l19
-22 -22 19 c-13 11 -23 14 -23 9 0 -6 6 -16 14 -22 8 -7 19 -25 24 -40 l10
-29 -29 15 c-16 8 -34 11 -40 7 -7 -4 -9 -3 -6 3 8 14 -21 73 -39 80 -8 3 -14
11 -14 18 0 13 -21 25 -46 25 -10 0 -9 -6 6 -22 45 -51 50 -59 50 -75 0 -15 2
-16 10 -3 8 13 10 12 10 -4 0 -31 29 -57 51 -46 14 8 21 6 29 -10 6 -11 17
-20 24 -20 8 0 19 -7 26 -15 13 -15 30 -12 30 7 0 5 -7 7 -15 4 -12 -4 -21 7
-35 40 -23 52 -23 54 -11 54 5 0 13 -9 16 -20 8 -24 25 -27 25 -4 0 11 5 14
16 10 9 -3 29 -6 45 -6 24 0 33 -6 43 -30 7 -17 15 -28 18 -25 3 3 8 -3 11
-15 6 -23 -1 -25 -27 -5 -10 8 -23 12 -28 9 -5 -3 6 -13 24 -22 23 -12 33 -24
32 -39 -1 -27 -3 -26 30 -13 17 6 26 6 26 0 0 -6 -6 -10 -13 -10 -8 0 -22 -9
-32 -20 -17 -19 -17 -20 -1 -20 9 0 15 -4 12 -9 -11 -18 -15 -89 -6 -120 5
-19 5 -31 -1 -31 -5 0 -9 -4 -9 -10 0 -5 8 -10 18 -10 16 -1 16 -1 0 -10 -13
-8 -15 -16 -8 -41 7 -24 6 -30 -4 -26 -8 3 -18 1 -24 -5 -8 -8 -13 -6 -18 6
-4 11 -2 21 6 26 8 5 4 8 -13 7 -14 -1 -23 -5 -20 -9 2 -5 -3 -8 -11 -8 -17 0
-21 -15 -7 -24 5 -4 12 0 15 6 4 7 4 3 2 -9 -5 -27 10 -30 41 -8 19 13 21 13
21 -11 0 -20 -3 -23 -10 -13 -7 10 -8 8 -5 -8 3 -13 1 -26 -4 -29 -5 -3 -7
-10 -4 -15 4 -5 1 -9 -5 -9 -6 0 -9 -4 -5 -9 3 -5 1 -12 -5 -16 -6 -4 -8 -11
-5 -16 4 -5 -1 -9 -9 -9 -13 0 -15 -14 -14 -72 0 -73 -5 -115 -18 -127 -4 -3
-4 2 -1 12 4 12 3 16 -4 11 -6 -3 -8 -16 -5 -28 3 -11 1 -28 -4 -36 -5 -8 -10
-10 -11 -5 -2 34 -9 63 -18 85 -10 21 -11 18 -6 -22 23 -220 26 -281 17 -306
-6 -15 -13 -52 -16 -83 -3 -30 -13 -71 -23 -89 -9 -19 -18 -50 -19 -69 -2 -20
-3 -38 -3 -40 -1 -2 -9 3 -18 10 -11 10 -14 10 -9 2 15 -25 15 -54 0 -60 -9
-3 -12 -12 -8 -25 4 -13 1 -24 -7 -29 -8 -4 -14 -14 -15 -21 0 -7 -2 -26 -2
-41 -1 -19 -6 -26 -14 -21 -6 4 -9 3 -6 -2 6 -9 -13 -157 -27 -219 -11 -52 11
-5 26 53 12 49 22 62 32 44 3 -4 8 -39 11 -78 6 -66 4 -76 -25 -130 -17 -33
-38 -67 -47 -76 -9 -10 -26 -27 -37 -39 -46 -49 -86 -59 -232 -61 -156 -2
-203 9 -286 68 -36 26 -44 29 -35 13 16 -26 94 -67 164 -85 67 -17 265 -20
322 -5 57 16 104 59 135 125 14 30 31 57 38 62 8 4 9 3 5 -5 -4 -6 -3 -18 3
-25 26 -31 21 -275 -6 -302 -17 -17 -9 -18 18 -4 14 8 19 21 19 56 0 25 4 43
8 40 11 -7 6 91 -7 140 -6 23 -15 102 -20 177 -7 102 -14 147 -31 183 -18 42
-18 46 -3 29 24 -27 75 -185 60 -185 -8 0 -9 -3 -2 -8 6 -4 11 -23 10 -44 0
-20 3 -34 7 -32 4 3 15 -21 24 -53 16 -56 34 -91 34 -65 0 7 9 12 19 12 19 0
19 3 7 37 -7 20 -21 42 -32 47 -26 15 -34 27 -34 54 0 15 4 21 11 16 7 -4 10
-1 7 7 -3 8 -11 13 -17 11 -14 -3 -15 15 0 20 6 2 -10 51 -40 118 -49 113 -49
114 -32 139 30 44 58 130 85 271 15 74 34 163 43 197 10 39 13 77 9 103 -4 29
0 62 14 110 11 37 25 102 30 144 9 74 29 136 53 164 14 18 16 42 21 230 3 141
3 143 31 172 25 26 26 30 9 30 -10 0 -28 -7 -38 -15 -24 -18 -36 -11 -36 21 0
39 -38 103 -73 124 -39 24 -55 25 -80 3 -11 -10 -17 -12 -13 -5 5 8 -2 23 -19
40 -15 15 -41 46 -57 70 -16 23 -32 42 -37 42 -4 0 -13 10 -20 23 -15 29 -48
50 -56 37z"/>
<path d="M775 3240 c-4 -6 6 -10 24 -10 38 0 48 -16 25 -41 -21 -23 -13 -24
28 -3 17 9 44 14 60 12 18 -3 25 -1 19 5 -5 5 -7 15 -5 22 3 7 -2 15 -10 18
-14 6 -20 -3 -17 -25 1 -7 -34 2 -82 21 -34 13 -34 13 -42 1z"/>
<path d="M1285 3228 c-11 -6 -22 -14 -25 -18 -3 -4 -29 -22 -57 -40 -52 -31
-67 -50 -40 -50 8 0 22 9 32 20 10 11 33 25 51 32 19 7 34 18 34 25 0 7 8 13
18 13 10 0 19 7 19 15 0 18 -5 18 -32 3z"/>
<path d="M965 3210 c-4 -6 13 -10 45 -10 32 0 49 4 45 10 -3 6 -24 10 -45 10
-21 0 -42 -4 -45 -10z"/>
<path d="M1020 3175 c-30 -7 -49 -13 -42 -14 7 0 11 -5 8 -10 -9 -14 54 -25
67 -12 8 8 6 11 -8 11 -13 0 -5 7 20 19 46 22 33 24 -45 6z"/>
<path d="M1466 3174 c-4 -10 4 -13 28 -11 38 2 39 12 2 19 -15 3 -27 0 -30 -8z"/>
<path d="M943 3159 c14 -23 13 -26 -1 -37 -14 -9 -14 -11 -2 -11 37 -1 42 15
15 45 -26 27 -26 27 -12 3z"/>
<path d="M812 3115 c-2 -49 11 -66 27 -36 6 11 17 26 24 33 9 8 11 21 6 33 -4
11 -8 14 -8 7 -1 -9 -6 -10 -20 -2 -27 14 -26 15 -29 -35z"/>
<path d="M1268 3142 c-31 -9 -60 -21 -65 -26 -5 -5 4 -5 22 0 17 4 44 8 62 8
17 1 29 4 26 9 -2 4 7 7 21 7 18 0 24 -4 20 -15 -7 -17 4 -19 26 -5 13 8 12
11 -5 24 -25 19 -35 19 -107 -2z"/>
<path d="M781 3120 c-5 -17 -16 -30 -22 -30 -9 0 -10 -3 -3 -10 17 -17 42 -1
46 31 6 40 -8 46 -21 9z"/>
<path d="M1450 3141 c14 -4 41 -10 60 -14 l35 -6 -30 14 c-16 8 -43 14 -60 14
-29 -1 -29 -1 -5 -8z"/>
<path d="M1023 3103 c4 -7 -1 -14 -13 -18 -22 -7 -26 -20 -8 -31 7 -5 8 -3 3
6 -6 10 -4 12 8 7 25 -9 41 17 20 34 -9 8 -14 9 -10 2z"/>
<path d="M1090 3083 c-19 -9 -29 -18 -23 -20 19 -7 84 17 78 28 -8 11 -12 11
-55 -8z"/>
<path d="M1235 3093 c-11 -3 -24 -9 -29 -14 -16 -15 19 -11 50 6 28 14 20 18
-21 8z"/>
<path d="M953 3066 c-24 -11 -31 -40 -12 -52 8 -4 9 1 4 16 -6 19 -4 22 9 17
10 -4 19 -1 23 9 7 20 2 22 -24 10z"/>
<path d="M1466 3061 c-3 -4 12 -15 34 -24 40 -15 40 -15 40 9 0 13 -4 24 -10
24 -5 0 -7 -7 -3 -16 5 -15 3 -15 -25 0 -17 9 -33 12 -36 7z"/>
<path d="M1157 3046 c-16 -17 -55 -22 -81 -11 -11 5 -26 3 -38 -4 -14 -9 -23
-9 -33 -1 -7 6 -20 8 -29 4 -26 -10 -18 -22 10 -16 19 3 25 1 20 -7 -9 -14 7
-14 22 1 8 8 15 8 27 -2 9 -7 15 -8 15 -2 0 6 -6 13 -12 15 -8 3 -6 6 5 6 10
1 20 -5 23 -13 4 -11 13 -12 42 -4 20 5 46 10 57 11 11 2 29 8 40 15 18 11 18
12 -7 6 -18 -4 -28 -2 -28 5 0 15 -16 14 -33 -3z"/>
<path d="M836 3033 c-5 -12 0 -24 15 -36 18 -14 22 -28 22 -83 1 -67 17 -67
20 1 1 20 7 35 15 35 17 0 15 10 -5 26 -17 13 -17 13 0 14 17 0 17 1 2 16 -11
12 -19 13 -29 5 -10 -8 -12 -6 -12 11 1 27 -19 35 -28 11z"/>
<path d="M708 3023 c26 -18 34 -97 8 -87 -8 3 -16 15 -18 27 -2 11 -9 22 -17
25 -21 7 -4 -39 24 -65 13 -12 27 -33 31 -47 3 -14 10 -26 16 -26 5 0 7 4 4 9
-4 5 3 7 13 4 14 -4 19 0 17 12 -1 9 -7 20 -12 23 -14 11 -15 32 -1 32 8 0 7
3 -3 10 -8 5 -11 12 -7 16 3 4 13 1 22 -6 8 -7 15 -9 15 -4 0 5 4 2 10 -6 5
-8 11 -12 14 -9 11 10 -19 39 -44 42 -15 2 -26 12 -28 23 -4 23 -30 44 -51 43
-12 0 -10 -4 7 -16z"/>
<path d="M630 3019 c-13 -8 -12 -11 4 -24 26 -19 47 -2 26 20 -11 10 -19 11
-30 4z"/>
<path d="M1550 3017 c0 -10 5 -17 11 -17 6 0 26 -16 45 -37 19 -20 37 -33 40
-30 8 8 -35 67 -48 67 -6 0 -20 7 -30 17 -17 15 -18 15 -18 0z"/>
<path d="M1137 2972 c-14 -3 -15 -6 -4 -16 15 -15 90 -7 85 8 -3 9 -51 14 -81
8z"/>
<path d="M1005 2930 c-3 -6 -11 -8 -16 -5 -5 4 -9 0 -9 -8 0 -8 10 -17 22 -21
22 -5 22 -6 3 -20 -17 -13 -17 -15 -4 -16 9 0 22 6 28 14 7 8 26 18 42 21 28
6 38 19 22 28 -21 12 -82 17 -88 7z"/>
<path d="M1213 2919 c-18 -5 -35 -14 -39 -21 -5 -8 0 -9 17 -4 13 3 45 9 71
13 26 3 45 10 42 14 -7 11 -49 10 -91 -2z"/>
<path d="M814 2904 c3 -9 6 -18 6 -20 0 -2 6 -4 14 -4 9 0 12 7 9 20 -3 11
-12 20 -20 20 -10 0 -13 -6 -9 -16z"/>
<path d="M940 2910 c-8 -5 -11 -10 -6 -10 5 0 3 -7 -4 -15 -7 -9 -10 -19 -6
-23 9 -8 36 26 36 45 0 15 -1 16 -20 3z"/>
<path d="M1700 2914 c0 -6 16 -25 35 -44 19 -19 35 -38 35 -44 0 -5 -11 1 -24
13 -24 23 -25 23 -19 2 3 -11 8 -21 12 -21 3 0 16 -3 27 -6 15 -4 23 0 28 12
4 10 4 16 1 13 -3 -4 -26 14 -50 39 -25 25 -45 41 -45 36z"/>
<path d="M1846 2898 c-14 -16 -14 -18 2 -15 22 3 42 16 42 26 0 14 -28 8 -44
-11z"/>
<path d="M1640 2902 c0 -5 -20 -13 -44 -16 -26 -4 -47 -13 -50 -22 -4 -11 -13
-13 -28 -9 -17 4 -19 4 -9 -3 11 -8 9 -12 -9 -22 -20 -11 -21 -10 -16 12 3 12
3 17 0 10 -5 -10 -9 -10 -20 -1 -11 9 -14 7 -14 -9 0 -25 33 -34 59 -15 12 8
25 12 29 9 5 -3 23 4 40 15 18 10 39 19 47 19 8 0 15 5 15 11 0 5 5 7 10 4 6
-3 10 -2 10 4 0 5 -4 13 -10 16 -5 3 -10 2 -10 -3z"/>
<path d="M654 2863 c-4 -16 -15 -39 -24 -53 -75 -112 -88 -143 -70 -165 7 -8
9 -26 6 -39 -3 -13 -2 -26 3 -28 5 -2 12 -39 15 -83 7 -91 30 -224 51 -293 4
-13 4 -22 -1 -21 -28 5 -32 -2 -22 -41 6 -22 15 -40 20 -40 6 0 8 -11 6 -25
-3 -13 0 -26 6 -28 7 -3 10 -41 8 -119 l-3 -116 36 -29 c40 -31 65 -71 65
-103 0 -35 38 -133 70 -178 24 -34 28 -47 20 -62 -17 -31 -11 -47 9 -21 17 23
19 23 44 7 23 -15 24 -21 15 -47 -5 -16 -15 -29 -21 -29 -7 0 -7 -4 1 -12 10
-10 15 -10 23 2 9 12 10 12 5 -3 -3 -11 1 -25 10 -35 15 -15 16 -14 10 5 -4
11 -2 33 4 48 7 20 8 31 0 39 -5 5 -10 18 -10 27 0 9 -12 24 -26 34 -18 11
-24 23 -21 36 3 10 1 19 -4 19 -5 0 -9 -5 -9 -12 0 -19 -19 4 -23 27 -1 11
-11 30 -21 42 -23 26 -46 88 -46 125 0 15 -9 43 -20 62 -48 87 -76 301 -46
355 11 20 11 27 1 38 -18 17 -31 17 -16 -1 9 -10 8 -15 -4 -19 -9 -4 -12 -13
-8 -24 7 -17 6 -17 -11 0 -10 10 -16 20 -13 24 3 3 1 16 -4 30 -5 14 -6 31 -1
37 4 6 7 23 6 39 0 15 4 27 10 27 6 0 0 7 -12 16 -16 11 -22 25 -22 52 0 23 3
32 8 24 5 -7 19 -14 31 -17 13 -2 29 -9 36 -15 11 -9 18 -2 34 34 12 24 18 52
14 62 -5 13 -10 6 -24 -27 -15 -39 -20 -44 -45 -42 -38 3 -65 37 -59 73 3 16
1 32 -5 35 -7 4 -6 13 1 27 6 12 8 35 3 57 -7 34 -7 35 -14 11 l-8 -25 -2 25
c-1 14 -2 31 -1 38 1 6 -2 12 -7 12 -19 0 -20 65 -2 105 10 22 20 48 24 58 8
24 26 12 26 -18 0 -31 17 -41 25 -16 3 12 -1 31 -11 47 -17 26 -17 27 4 45 13
10 18 20 12 24 -7 4 -7 12 0 26 8 15 7 19 -4 19 -9 0 -19 -12 -22 -27z m54
-1032 c10 -56 3 -64 -22 -26 -24 37 -31 81 -15 98 17 18 23 6 37 -72z"/>
<path d="M1659 2864 c-6 -7 -8 -18 -5 -23 9 -14 56 8 50 24 -6 15 -32 15 -45
-1z"/>
<path d="M1276 2809 c-8 -44 -8 -46 10 -53 13 -5 15 0 11 34 -6 52 -13 59 -21
19z"/>
<path d="M1597 2823 c-18 -19 -102 -53 -129 -53 -10 0 -18 -4 -18 -10 0 -18
54 -11 96 13 60 32 102 66 84 67 -9 0 -23 -8 -33 -17z"/>
<path d="M702 2805 c2 -17 7 -24 16 -20 9 3 12 0 9 -7 -3 -8 5 -14 21 -15 13
0 28 -7 33 -15 5 -8 9 -8 9 -2 0 6 -7 17 -15 24 -8 7 -15 9 -15 5 0 -5 -9 0
-20 10 -11 10 -20 24 -20 32 0 7 -4 13 -10 13 -5 0 -9 -11 -8 -25z"/>
<path d="M1679 2811 c11 -7 9 -11 -8 -20 -11 -7 -21 -16 -21 -21 0 -5 15 1 34
13 32 21 31 37 -4 37 -12 0 -13 -2 -1 -9z"/>
<path d="M1810 2798 c0 -10 -4 -18 -10 -18 -5 0 -10 5 -10 10 0 6 -6 10 -12
10 -20 0 -61 -24 -59 -33 3 -13 -50 -42 -158 -88 -22 -9 -23 -11 -9 -26 20
-19 45 -8 28 12 -10 12 -6 12 22 4 18 -6 41 -13 51 -16 19 -6 25 23 5 29 -19
7 13 36 33 31 18 -5 41 26 37 49 -2 6 6 14 17 16 18 4 18 3 5 -14 -13 -17 -12
-16 9 1 21 17 24 18 18 3 -7 -20 9 -25 16 -5 4 10 6 10 6 0 1 -7 11 -12 24
-12 16 1 18 2 5 6 -10 2 -18 9 -18 14 0 6 5 7 10 4 13 -8 13 5 0 25 -8 13 -10
12 -10 -2z"/>
<path d="M1838 2723 c-40 -6 -34 -20 10 -21 50 -2 80 7 61 19 -14 9 -23 9 -71
2z"/>
<path d="M610 2685 c0 -8 -5 -15 -12 -15 -9 0 -9 -3 -1 -11 6 -6 9 -18 6 -25
-3 -8 0 -14 6 -14 6 0 11 7 11 16 0 14 8 15 50 11 31 -3 50 -2 50 5 0 6 -9 8
-20 5 -11 -3 -23 -1 -26 4 -3 5 -18 16 -35 24 -26 14 -29 14 -29 0z"/>
<path d="M1344 2691 c3 -4 19 -14 36 -21 16 -7 27 -16 24 -21 -6 -11 23 -11
51 0 16 7 12 10 -22 15 -22 4 -49 14 -60 21 -20 16 -37 19 -29 6z"/>
<path d="M1872 2649 c-18 -16 -29 -29 -25 -29 4 0 -6 -13 -22 -30 -23 -24 -25
-30 -11 -30 9 0 14 5 11 10 -3 6 -3 10 2 10 15 0 63 47 63 63 0 8 6 17 13 20
6 2 10 7 7 10 -3 3 -20 -8 -38 -24z"/>
<path d="M845 2650 c-30 -14 -34 -19 -19 -19 12 -1 32 8 45 19 29 24 25 24
-26 0z"/>
<path d="M1680 2658 c0 -10 18 -13 67 -11 95 2 97 2 91 8 -3 3 -40 8 -82 11
-58 3 -76 2 -76 -8z"/>
<path d="M1215 2624 c2 -21 6 -48 11 -58 7 -18 8 -18 16 4 5 13 6 25 3 28 -3
3 -5 0 -5 -7 0 -7 -5 -9 -10 -6 -6 4 -8 15 -5 26 4 10 2 26 -3 35 -7 13 -9 7
-7 -22z"/>
<path d="M1421 2608 c1 -17 3 -18 6 -5 3 11 14 17 31 16 15 0 22 -3 16 -5 -6
-3 -9 -16 -6 -29 7 -41 21 -39 18 2 -3 34 -7 38 -35 41 -27 3 -31 0 -30 -20z"/>
<path d="M1577 2619 c7 -7 21 -14 30 -15 10 -1 40 -6 67 -12 27 -6 55 -8 63
-5 8 3 11 0 8 -9 -8 -20 25 -20 47 0 10 8 15 19 11 25 -3 5 -1 7 5 3 6 -3 13
-2 17 4 3 5 -3 10 -14 10 -12 0 -21 -4 -21 -9 0 -5 -8 -8 -17 -6 -10 2 -43 7
-73 10 -30 4 -73 9 -95 11 -32 4 -38 3 -28 -7z"/>
<path d="M1140 2603 c0 -8 28 -51 50 -78 l25 -30 -25 21 c-45 38 -56 38 -20 0
75 -81 149 -93 196 -31 32 42 31 58 -2 20 -24 -29 -25 -29 -18 -5 6 25 6 25
-16 -3 -18 -22 -28 -27 -52 -23 -17 2 -37 14 -44 25 -8 11 -20 26 -28 33 -7 7
-19 24 -25 37 -11 19 -11 25 0 32 10 6 5 8 -13 7 -16 -1 -28 -4 -28 -5z"/>
<path d="M1669 2564 c18 -8 41 -13 50 -11 11 3 9 5 -6 6 -12 0 -25 6 -28 11
-3 6 -16 10 -28 9 -18 0 -16 -3 12 -15z"/>
<path d="M1643 2513 c9 -2 15 -8 12 -13 -8 -12 52 -30 102 -30 31 0 42 3 37
12 -4 7 -3 8 4 4 6 -4 20 -3 29 2 31 16 73 23 73 12 0 -5 -8 -10 -18 -10 -24
0 -59 -26 -49 -36 4 -5 12 -2 17 6 10 16 50 24 50 10 0 -6 8 -10 18 -10 13 0
14 2 3 9 -8 5 -11 16 -7 29 7 20 3 20 -89 19 -52 -1 -95 -5 -95 -8 0 -4 -17
-3 -37 2 -39 9 -84 11 -50 2z"/>
<path d="M1566 2492 c32 -29 75 -53 86 -50 6 2 -5 12 -24 21 -19 9 -41 23 -48
32 -7 8 -17 15 -23 15 -6 0 -2 -8 9 -18z"/>
<path d="M1429 2483 c-1 -5 -1 -11 0 -15 2 -12 -13 -9 -29 5 -12 10 -12 9 0
-6 7 -10 19 -16 26 -13 7 3 24 -4 39 -16 39 -30 39 -17 -1 20 -19 18 -35 29
-35 25z"/>
<path d="M1528 2420 c12 -5 22 -16 22 -24 0 -10 12 -14 38 -14 27 0 32 2 17 8
-11 4 -24 5 -28 3 -5 -3 -15 4 -23 16 -8 12 -23 21 -32 20 -12 0 -11 -3 6 -9z"/>
<path d="M1750 2413 c0 -9 3 -14 6 -10 4 3 21 0 39 -8 48 -19 66 2 20 23 -37
17 -65 15 -65 -5z"/>
<path d="M1830 2352 c0 -13 9 -35 20 -49 25 -32 25 -27 0 28 -15 34 -20 39
-20 21z"/>
<path d="M865 2322 c-19 -18 -35 -37 -35 -42 0 -5 -7 -16 -16 -24 -16 -16 -8
-21 20 -10 9 3 14 10 11 15 -3 4 4 13 17 20 27 14 207 6 256 -11 38 -14 56 -5
29 14 -9 7 -17 20 -17 29 0 8 -8 18 -17 23 -23 9 -135 12 -120 2 7 -4 -1 -8
-18 -8 -24 0 -27 -2 -15 -11 12 -9 12 -10 -3 -5 -10 3 -26 6 -35 6 -13 0 -11
5 8 20 l25 20 -27 -2 c-15 -1 -43 -17 -63 -36z"/>
<path d="M1569 2316 c-3 -3 -18 -8 -34 -11 -73 -14 -96 -21 -96 -28 1 -4 1
-14 1 -21 0 -11 10 -14 38 -11 20 2 78 7 129 11 71 5 90 10 86 20 -3 8 -13 14
-22 14 -9 0 -23 6 -30 13 -11 10 -12 9 -6 -1 6 -11 3 -11 -14 0 -18 11 -23 10
-36 -7 -16 -20 -16 -20 -10 3 6 21 4 27 -6 18z"/>
<path d="M1700 2311 c0 -6 5 -13 11 -16 6 -4 8 -14 5 -22 -4 -9 4 -18 24 -25
19 -6 29 -16 28 -26 -2 -9 5 -18 15 -20 18 -4 18 -2 1 29 -16 32 -66 89 -78
89 -3 0 -6 -4 -6 -9z"/>
<path d="M696 2293 c-7 -18 2 -35 15 -28 5 3 6 -1 3 -9 -3 -9 -11 -13 -18 -9
-6 3 -8 3 -4 -2 4 -4 3 -16 -3 -27 -7 -14 -7 -23 2 -34 17 -20 25 -8 33 49 6
35 4 47 -6 47 -11 0 -10 2 0 9 11 7 11 9 -1 14 -9 3 -18 -1 -21 -10z"/>
<path d="M1090 2216 c19 -7 43 -17 53 -21 10 -4 17 -3 17 3 0 12 -54 32 -84
32 -15 -1 -11 -5 14 -14z"/>
<path d="M966 2195 c-22 -7 -48 -22 -58 -32 -18 -19 -17 -19 32 -35 27 -9 50
-12 50 -7 0 5 -14 12 -30 16 -29 5 -30 7 -14 24 20 22 44 25 44 6 0 -21 36
-49 57 -45 10 2 26 19 36 38 17 35 17 35 -5 42 -37 10 -70 8 -112 -7z m104
-25 c0 -12 -45 -24 -59 -15 -22 13 -10 25 24 25 19 0 35 -4 35 -10z"/>
<path d="M1531 2181 c-9 -6 -11 -18 -7 -35 6 -25 5 -26 -21 -20 -16 4 -30 11
-33 15 -3 5 -11 -1 -18 -11 -12 -19 -9 -20 66 -20 76 0 79 1 92 28 8 15 15 28
16 30 1 2 14 -4 29 -14 23 -15 24 -19 11 -26 -9 -5 -16 -14 -16 -19 0 -6 6 -7
12 -2 7 4 22 7 32 8 36 0 26 22 -23 48 -49 27 -113 35 -140 18z m69 -31 c0 -5
-9 -12 -21 -15 -23 -7 -45 7 -35 23 6 11 56 4 56 -8z"/>
<path d="M1150 2153 c0 -5 -17 -14 -37 -20 l-38 -10 53 -2 c53 -1 64 7 37 29
-8 7 -15 8 -15 3z"/>
<path d="M1430 1917 c0 -8 11 -19 25 -25 14 -7 30 -23 37 -37 6 -14 15 -25 20
-25 10 0 -17 57 -40 83 -18 20 -42 23 -42 4z"/>
<path d="M1185 1906 c-11 -6 -21 -11 -22 -11 -1 0 -6 -20 -11 -43 -12 -50 1
-47 18 4 7 19 21 39 33 43 11 4 16 10 11 13 -5 3 -18 1 -29 -6z"/>
<path d="M1386 1793 c-33 -36 -25 -42 16 -11 18 13 41 22 51 20 21 -4 22 -21
2 -28 -8 -4 -15 -18 -15 -32 0 -24 0 -25 -20 -7 -19 18 -20 17 -20 -2 0 -11 6
-26 13 -32 11 -9 19 -1 37 35 13 25 28 48 32 51 13 8 -24 32 -49 33 -12 0 -33
-12 -47 -27z"/>
<path d="M1199 1794 c-11 -13 -9 -14 12 -9 14 3 38 1 53 -5 35 -13 48 -4 22
16 -26 19 -70 18 -87 -2z"/>
<path d="M1200 1695 c-10 -12 -10 -15 4 -15 19 0 21 -11 4 -29 -11 -11 -10
-13 2 -9 17 5 26 46 12 60 -5 5 -14 3 -22 -7z"/>
<path d="M1485 1588 c-27 -5 -110 -10 -182 -10 -73 -1 -133 -4 -133 -8 0 -8
11 -9 133 -10 54 -1 120 2 145 6 43 6 46 6 33 -9 -18 -23 -2 -21 29 3 14 11
31 20 38 20 7 0 10 5 7 10 -3 6 -9 9 -13 9 -4 -1 -29 -6 -57 -11z"/>
<path d="M1084 1573 c3 -4 21 -12 39 -19 17 -6 40 -15 50 -19 14 -6 13 -2 -6
19 -17 18 -34 26 -57 26 -18 0 -30 -3 -26 -7z"/>
<path d="M1930 1480 c-8 -5 -11 -10 -6 -10 6 0 1 -7 -10 -15 -15 -11 -16 -15
-4 -16 8 -1 18 -1 21 -1 63 8 100 8 105 0 3 -5 12 -7 20 -4 14 5 34 -22 34
-47 0 -19 -70 -40 -87 -25 -9 7 -13 7 -13 -1 0 -6 4 -11 10 -11 5 0 7 -8 3
-17 -6 -17 -5 -16 15 1 11 10 33 19 49 19 31 2 52 22 53 52 0 17 2 17 10 5 8
-12 10 -11 10 8 0 27 -32 42 -89 42 -20 0 -46 7 -57 15 -22 17 -43 19 -64 5z"/>
<path d="M1294 1459 c-3 -6 0 -15 7 -20 15 -9 62 -1 67 12 2 4 10 5 18 2 8 -3
14 -1 14 4 0 5 -16 10 -35 11 -26 2 -35 -1 -35 -13 0 -8 -4 -15 -10 -15 -5 0
-7 7 -4 15 7 17 -11 21 -22 4z"/>
<path d="M1790 1449 c-1 -18 32 -78 59 -108 17 -19 30 -39 29 -45 -3 -14 44
-86 56 -86 5 0 2 8 -5 18 -7 9 -20 26 -29 38 -8 11 1 3 20 -18 20 -21 39 -38
43 -38 14 0 6 27 -13 45 -11 10 -20 23 -20 29 1 6 16 -7 35 -28 45 -51 57 -39
15 14 -22 27 -38 39 -49 35 -11 -3 -32 12 -64 45 -26 27 -47 53 -47 58 0 10
-29 50 -30 41z"/>
<path d="M2157 1443 c-10 -10 -8 -25 2 -18 6 3 14 -2 19 -10 7 -13 14 -14 36
-5 15 5 48 10 74 9 l47 -1 -60 -16 c-33 -10 -74 -26 -91 -36 l-31 -19 31 -48
c17 -26 39 -62 49 -80 10 -17 20 -29 23 -26 4 3 -14 39 -39 80 l-45 74 34 17
c45 21 47 21 61 -11 18 -40 60 -89 68 -81 4 4 -9 29 -29 56 -20 27 -36 52 -36
56 0 15 29 4 42 -16 9 -13 19 -18 27 -14 8 6 9 11 2 20 -13 15 -4 26 18 26 11
0 16 -9 16 -30 0 -16 5 -30 10 -30 6 0 10 4 10 9 0 5 3 13 8 17 6 7 11 -9 8
-28 0 -5 4 -8 9 -8 7 0 9 14 5 38 -5 27 -4 33 4 22 10 -13 11 -13 12 0 0 8 9
-3 19 -25 l19 -40 -5 35 c-4 34 -4 34 7 8 13 -34 29 -36 30 -5 0 12 3 16 6 10
2 -7 10 -13 17 -13 8 0 12 -9 9 -23 -3 -17 0 -23 16 -24 25 -2 25 -2 7 40 -13
31 -17 33 -122 55 -60 12 -128 27 -152 32 -49 11 -126 13 -135 3z"/>
<path d="M775 1410 c-10 -11 -15 -26 -11 -35 5 -13 0 -16 -21 -13 -14 2 -29 9
-31 17 -3 9 0 11 8 6 8 -5 11 -4 6 3 -4 6 -13 9 -21 5 -9 -3 -22 0 -29 6 -30
25 -28 -12 2 -59 2 -2 7 2 12 10 8 12 10 9 10 -10 0 -20 2 -22 10 -10 9 13 10
13 10 0 1 -12 3 -12 14 2 7 10 16 14 22 8 5 -5 17 2 28 18 17 22 17 25 3 19
-9 -3 -17 -2 -17 3 0 5 9 11 19 15 23 7 36 35 17 35 -7 0 -21 -9 -31 -20z"/>
<path d="M1674 1407 c-6 -7 -22 -19 -34 -27 -13 -8 -45 -36 -71 -62 -65 -67
-103 -81 -229 -83 -57 -2 -111 1 -120 5 -8 5 -34 13 -57 19 -24 7 -43 16 -43
21 0 6 -7 10 -15 10 -8 0 -15 3 -15 8 0 9 -41 35 -47 29 -8 -9 40 -48 90 -73
26 -13 47 -22 47 -20 0 2 19 -2 43 -8 24 -8 84 -12 143 -10 81 2 108 6 139 24
41 23 195 159 195 172 0 12 -13 9 -26 -5z"/>
<path d="M1940 1398 c16 -13 27 -15 40 -8 10 5 34 11 53 12 63 5 29 16 -44 15
-70 -1 -71 -1 -49 -19z"/>
<path d="M860 1385 c-7 -8 -9 -15 -4 -15 5 0 4 -4 -2 -8 -12 -8 -36 -73 -30
-80 3 -2 17 22 31 53 27 56 29 79 5 50z"/>
<path d="M2571 1390 c0 -3 6 -27 14 -55 11 -40 14 -44 14 -20 0 17 -6 41 -14
55 -8 14 -14 23 -14 20z"/>
<path d="M2114 1363 c-4 -10 -6 -22 -5 -27 1 -5 -8 -6 -20 -3 -18 5 -50 -4
-68 -19 -1 -1 12 -21 30 -44 27 -33 31 -43 19 -50 -14 -9 -108 -25 -122 -22
-14 3 -9 -15 7 -28 8 -7 31 -39 51 -72 20 -32 38 -57 40 -55 3 3 -5 21 -17 41
-12 20 -19 39 -16 43 4 3 12 -6 18 -21 14 -31 39 -35 39 -6 0 11 -7 20 -15 20
-8 0 -15 5 -15 11 0 7 -9 9 -21 6 -15 -4 -28 1 -40 16 -26 31 -23 45 4 19 13
-12 27 -22 33 -22 5 0 1 5 -8 11 -24 14 -23 29 2 29 12 0 34 7 51 16 24 12 29
19 23 37 -3 12 -13 30 -22 40 -11 12 -12 21 -5 28 15 15 43 -29 46 -72 2 -34
7 -44 40 -81 28 -29 31 -16 6 26 -11 20 -17 36 -12 36 12 0 53 -85 53 -109 0
-45 10 -48 44 -17 18 17 31 37 29 43 -4 9 -12 4 -25 -12 l-19 -25 -31 58 c-17
31 -40 76 -52 99 -11 23 -27 42 -33 43 -7 0 -13 4 -13 9 0 14 26 21 38 9 6 -6
12 -6 17 1 3 6 -1 14 -10 17 -14 6 -14 8 1 25 15 17 15 19 2 19 -9 0 -19 -8
-24 -17z"/>
<path d="M954 1352 c7 -22 -15 -164 -44 -282 -27 -107 -36 -134 -55 -164 -10
-15 -15 -29 -12 -32 3 -4 15 8 26 26 l19 33 5 -29 c4 -21 5 -18 4 10 -1 24 3
41 11 44 7 2 12 -7 12 -25 0 -15 3 -59 5 -98 3 -51 2 -63 -5 -45 -8 21 -9 19
-5 -15 25 -231 27 -277 21 -472 -3 -117 -9 -232 -12 -257 -5 -36 -4 -46 7 -46
9 0 15 12 16 33 4 94 12 218 18 291 3 45 1 165 -4 267 -21 360 -22 509 -6 532
8 12 15 36 15 54 0 17 5 35 10 38 7 4 7 12 0 25 -5 10 -10 41 -10 69 0 27 -5
53 -11 57 -7 4 -9 0 -5 -14z"/>
<path d="M604 1343 c5 -9 0 -13 -12 -13 -10 0 -29 -8 -41 -19 -15 -14 -37 -19
-79 -19 -71 0 -187 -43 -195 -73 -6 -24 1 -24 20 -1 13 16 14 15 8 -5 -4 -14
-2 -23 4 -23 6 0 11 8 11 18 0 9 5 24 11 32 8 11 9 6 5 -20 -5 -33 -5 -34 10
-15 15 19 16 16 10 -40 -4 -41 -3 -55 4 -45 5 8 10 38 10 65 0 69 20 95 71 95
34 0 53 -12 32 -22 -11 -4 -63 -86 -63 -98 0 -24 17 -6 45 48 24 45 37 59 64
68 19 6 39 18 45 26 6 8 16 13 21 12 6 -2 17 1 25 6 13 8 13 11 1 22 -10 10
-12 10 -7 1z"/>
<path d="M2622 1305 c-1 -25 -4 -50 -7 -55 -4 -6 -4 -10 -1 -10 3 0 12 16 21
36 11 26 12 41 5 55 -15 27 -17 24 -18 -26z"/>
<path d="M2340 1335 c0 -2 5 -15 11 -29 8 -18 9 -29 2 -38 -6 -8 -7 -21 -2
-33 4 -11 8 -42 8 -68 1 -27 12 -81 25 -120 27 -83 69 -234 71 -257 0 -8 3
-20 6 -25 3 -6 6 -25 8 -44 1 -19 13 -63 28 -99 31 -79 53 -159 45 -167 -14
-14 -59 117 -112 324 -32 123 -60 217 -62 210 -5 -16 10 -87 50 -234 16 -60
33 -128 37 -150 7 -42 63 -175 74 -175 4 0 7 -8 8 -17 1 -10 11 -70 23 -133
11 -63 24 -132 27 -153 3 -20 8 -37 12 -37 3 0 6 -16 7 -35 1 -53 19 -63 21
-12 1 51 16 127 37 184 l15 42 -46 -1 -46 -1 29 -12 c25 -12 26 -13 7 -14 -29
-1 -37 15 -34 66 3 49 -6 86 -20 78 -5 -4 -9 10 -9 30 0 22 4 34 10 30 6 -3
10 -12 10 -19 0 -22 74 -84 105 -88 27 -3 30 -6 27 -35 -4 -38 10 -67 61 -123
l39 -42 78 48 79 47 -65 78 c-60 73 -73 94 -88 143 -4 10 -9 16 -12 14 -10
-11 25 -76 80 -147 59 -77 64 -88 42 -88 -8 0 -12 6 -9 13 9 25 -15 23 -32 -2
-9 -15 -11 -23 -4 -19 8 5 10 4 5 -3 -4 -7 -14 -12 -22 -12 -8 0 -17 -7 -20
-15 -9 -22 -45 -20 -37 2 5 15 3 16 -8 5 -18 -17 -30 -15 -22 5 4 10 2 14 -4
10 -11 -7 -41 52 -46 92 -2 14 2 36 9 50 12 23 11 26 -5 33 -11 3 -22 11 -26
17 -8 13 -45 15 -45 2 0 -5 16 -15 36 -21 41 -14 40 -36 -1 -33 -18 1 -43 18
-72 47 -23 25 -43 48 -43 51 0 4 -9 20 -21 36 -13 18 -18 36 -14 49 4 12 6 47
6 79 0 32 6 81 14 110 7 28 10 53 6 56 -8 4 -46 -5 -83 -20 -29 -12 -21 13 10
28 33 17 92 29 93 19 7 -49 6 -81 -2 -77 -5 4 -9 2 -9 -4 0 -5 4 -12 9 -15 6
-4 5 -20 -1 -42 -5 -20 -8 -38 -5 -40 2 -3 10 17 16 43 7 26 17 55 22 63 32
51 33 59 9 78 -20 16 -23 29 -24 85 -1 64 -1 66 21 61 14 -4 23 -2 23 5 0 6
-11 13 -25 17 -33 8 -32 19 6 56 21 22 27 34 20 41 -8 8 -11 6 -11 -5 0 -9 -7
-19 -16 -22 -16 -6 -16 6 2 67 4 11 0 17 -11 17 -14 0 -16 -6 -11 -27 5 -21 4
-24 -4 -13 -5 8 -10 53 -10 100 -1 61 -4 79 -10 63 -5 -13 -16 -23 -25 -23 -8
0 -36 -13 -62 -29 -27 -16 -62 -32 -80 -36 -28 -5 -32 -3 -35 17 -3 24 34 68
58 68 16 0 17 9 6 28 -5 7 -15 10 -24 7 -9 -4 -21 4 -32 19 -14 22 -46 37 -46
21z m240 -115 c0 -5 -9 -10 -20 -10 -11 0 -20 -4 -20 -8 0 -21 42 -127 53
-134 6 -4 7 -8 2 -8 -7 0 -9 -15 -7 -36 3 -26 1 -35 -7 -30 -8 5 -8 0 -1 -19
6 -15 10 -53 10 -86 l0 -59 -32 0 c-18 0 -46 -7 -62 -15 -36 -19 -35 -19 -29
5 3 11 0 27 -7 35 -10 13 -8 19 16 38 15 12 39 27 53 34 17 7 20 12 10 12 -9
1 -33 -10 -53 -24 -20 -14 -40 -25 -43 -25 -15 0 35 44 65 57 17 7 32 20 32
28 0 8 -3 15 -6 15 -13 0 -74 -42 -74 -51 0 -4 -8 -5 -17 -2 -14 5 -11 11 17
35 19 15 42 28 52 28 20 0 21 1 12 24 -3 9 -11 16 -17 16 -6 0 -8 -3 -4 -6 10
-10 -52 -57 -67 -51 -15 6 -33 118 -22 136 4 5 -6 11 -21 13 l-28 4 30 13 c42
18 84 39 125 62 39 21 60 24 60 9z m-48 -465 c12 -5 13 -17 5 -65 -5 -33 -13
-60 -17 -60 -10 0 -30 56 -30 82 0 10 6 25 13 33 14 17 12 16 29 10z"/>
<path d="M2461 1153 c-27 -18 -30 -23 -14 -23 20 0 48 -44 38 -60 -3 -5 0 -12
6 -16 8 -4 9 -3 5 4 -4 7 -3 12 3 12 6 0 6 11 0 32 -5 18 -9 40 -9 48 0 13 1
13 10 0 8 -13 10 -13 10 2 0 26 -12 27 -49 1z"/>
<path d="M665 1313 c-6 -15 -13 -49 -28 -145 -2 -10 -6 -21 -10 -24 -12 -12
-8 -24 8 -24 8 0 15 -4 15 -9 0 -5 -10 -7 -22 -5 -23 5 -23 4 0 -6 20 -8 23
-15 17 -41 -5 -20 -3 -29 3 -26 5 4 11 48 14 100 5 91 18 137 40 137 7 0 7 -5
-2 -14 -8 -10 -8 -21 -2 -32 8 -14 10 -13 16 10 8 33 1 46 -25 46 -21 0 -26
16 -6 23 9 3 9 8 1 16 -9 10 -13 8 -19 -6z"/>
<path d="M860 1291 c-6 -24 -20 -57 -30 -74 -12 -20 -16 -34 -9 -38 14 -9 -29
-79 -49 -80 -11 0 -12 -2 -4 -6 6 -2 12 -16 12 -29 0 -22 -2 -24 -22 -13 -22
12 -22 12 -6 -14 14 -20 15 -25 3 -23 -8 1 -18 5 -21 9 -13 12 -61 7 -74 -7
-9 -12 -17 -12 -35 -4 -16 7 -28 7 -41 -1 -17 -9 -15 -10 13 -11 38 0 67 -26
57 -49 -4 -9 -7 -41 -5 -71 1 -31 -7 -92 -17 -138 -12 -51 -16 -85 -10 -88 5
-4 7 -20 4 -38 -7 -42 -38 -267 -39 -288 -1 -10 -5 -18 -10 -18 -5 0 -4 -7 3
-15 7 -8 9 -22 6 -31 -12 -32 -37 -166 -35 -187 2 -12 -2 -32 -9 -44 -14 -26
-15 -33 -3 -33 5 0 12 12 15 26 6 23 11 25 39 20 l32 -6 -3 178 c-2 101 1 201
7 232 6 31 13 91 16 135 10 173 23 277 34 284 6 4 12 27 13 52 1 43 15 79 30
79 12 0 9 -58 -3 -66 -7 -4 -2 -14 15 -29 14 -12 23 -25 20 -28 -4 -3 -14 1
-23 10 -15 16 -16 13 -22 -33 -3 -27 -7 -41 -7 -31 -1 10 -6 16 -11 13 -5 -3
-2 -25 7 -49 14 -40 14 -49 -1 -98 -26 -85 -31 -113 -20 -106 6 4 18 34 27 68
19 65 23 69 28 26 2 -15 7 -27 11 -27 4 0 10 0 13 0 4 0 1 7 -6 15 -7 8 -10
21 -7 30 4 8 -2 19 -11 25 -15 10 -14 11 5 7 29 -6 59 29 57 68 -3 55 -14 109
-24 119 -19 19 -10 73 25 145 30 60 38 71 50 61 12 -10 16 -4 26 34 11 44 29
72 29 45 0 -7 3 -10 6 -7 3 4 0 16 -6 28 -10 18 -14 20 -21 9 -13 -20 -12 22
1 57 7 17 7 31 1 37 -6 6 -14 -5 -21 -32z m-98 -459 c0 -9 2 -24 2 -32 1 -8
-3 -18 -8 -22 -15 -10 -35 23 -36 60 0 30 2 32 20 22 11 -6 21 -18 22 -28z"/>
<path d="M2504 1316 c-3 -9 -10 -13 -15 -10 -5 3 -9 -2 -9 -10 0 -8 5 -18 10
-21 6 -3 10 -2 10 4 0 6 7 8 15 5 10 -4 15 0 15 14 0 26 -18 38 -26 18z"/>
<path d="M2150 1285 c0 -18 5 -25 20 -25 17 0 18 3 8 25 -6 14 -15 25 -20 25
-4 0 -8 -11 -8 -25z"/>
<path d="M574 1282 c8 -23 -16 -71 -50 -105 -14 -14 -23 -31 -19 -36 3 -7 0
-8 -10 -5 -11 5 -14 2 -9 -9 6 -17 71 -43 81 -33 4 3 -1 6 -10 6 -9 0 -19 5
-22 10 -4 7 2 9 19 4 20 -5 26 -2 26 9 0 9 -9 19 -20 22 -11 3 -20 11 -20 16
0 5 9 4 20 -3 25 -16 41 -1 17 17 -12 8 -14 15 -8 20 12 7 35 48 45 83 6 19 4
22 -19 22 -21 0 -25 -4 -21 -18z"/>
<path d="M754 1265 c-15 -20 -25 -37 -23 -39 4 -5 79 61 79 69 0 17 -33 -1
-56 -30z"/>
<path d="M2651 1261 c-7 -13 -17 -36 -21 -50 -4 -14 -11 -34 -15 -43 -5 -13
-2 -18 10 -18 11 0 15 5 11 15 -3 8 -1 15 5 15 6 0 9 7 5 15 -3 9 0 15 9 15 8
0 19 9 25 20 16 31 27 24 34 -22 9 -55 14 -61 38 -44 11 8 28 12 37 9 9 -4 13
-3 9 2 -4 4 -17 8 -29 9 -12 0 -24 7 -27 15 -3 10 0 12 12 8 24 -9 20 -1 -16
34 -19 18 -39 28 -50 26 -9 -3 -19 0 -21 7 -2 6 -9 0 -16 -13z"/>
<path d="M520 1253 c-9 -2 -24 -23 -35 -46 -11 -23 -21 -45 -23 -49 -2 -5 4
-8 13 -8 9 0 15 6 14 13 -3 20 12 51 35 69 22 18 21 26 -4 21z"/>
<path d="M798 1243 c-17 -19 -38 -58 -38 -68 0 -12 27 21 44 53 18 36 17 41
-6 15z"/>
<path d="M2187 1244 c-11 -12 -8 -26 4 -18 8 4 9 0 4 -15 -4 -13 -2 -21 5 -21
6 0 9 -4 6 -9 -4 -5 4 -7 16 -3 12 3 17 7 10 10 -6 2 -12 9 -12 16 0 18 -24
48 -33 40z"/>
<path d="M195 1195 c-23 -12 -54 -34 -69 -48 l-29 -27 29 0 c28 -1 28 -1 9
-16 -19 -15 -19 -15 10 -8 52 11 78 28 82 52 3 22 2 22 -22 6 -14 -9 -22 -20
-19 -25 9 -15 -23 -10 -36 6 -10 12 -10 15 4 15 22 0 108 55 100 63 -10 9 -13
8 -59 -18z"/>
<path d="M1668 1149 c-6 -37 1 -81 12 -74 6 4 2 96 -5 103 -1 2 -5 -11 -7 -29z"/>
<path d="M2306 1088 c53 -105 75 -119 25 -16 -23 50 -27 66 -18 77 10 12 9 13
-1 7 -8 -5 -21 -1 -34 11 -14 12 -5 -12 28 -79z"/>
<path d="M2670 1171 c0 -6 8 -19 18 -29 10 -10 21 -26 25 -35 3 -9 11 -17 16
-17 22 0 30 -36 15 -65 -11 -22 -12 -25 0 -16 11 9 21 5 50 -21 42 -37 44 -44
14 -68 -13 -10 -20 -22 -16 -26 8 -7 58 40 58 54 0 5 -18 25 -40 46 -24 23
-40 47 -40 61 0 13 -10 30 -26 40 -31 20 -26 29 10 16 16 -7 26 -18 26 -30 0
-11 20 -43 44 -70 l44 -49 23 24 c12 13 28 24 36 24 19 0 16 -50 -4 -66 -17
-12 -17 -13 3 -14 12 0 28 -8 35 -17 11 -15 11 -16 -1 -5 -21 18 -30 15 -30
-13 0 -13 -5 -35 -11 -48 -8 -18 -8 -30 0 -45 10 -19 14 -20 44 -9 32 12 32
12 6 15 -21 2 -26 7 -22 23 4 13 11 18 23 14 27 -8 31 19 11 62 -11 21 -19 58
-19 82 -1 47 -23 81 -53 81 -19 0 -32 15 -36 40 -3 20 -34 42 -51 35 -8 -3
-20 -1 -27 5 -8 7 -23 6 -46 -4 -32 -13 -35 -13 -56 10 -13 14 -23 20 -23 15z
m174 -49 c4 -10 21 -35 39 -55 19 -20 31 -41 27 -48 -6 -8 -9 -8 -14 0 -4 6
-12 11 -17 11 -6 0 -8 -4 -5 -9 3 -4 -6 -6 -19 -3 -14 2 -23 8 -20 12 3 5 0
10 -7 12 -6 2 -8 10 -4 17 6 9 12 8 27 -5 31 -28 30 -12 -2 39 -16 26 -25 47
-20 47 5 0 12 -8 15 -18z"/>
<path d="M865 1101 c-15 -39 -31 -71 -36 -71 -5 0 -3 13 6 30 8 16 15 34 15
40 0 14 -21 9 -23 -5 0 -6 -6 -21 -13 -33 -8 -16 -9 -34 -4 -53 7 -22 5 -29
-5 -29 -20 0 -27 -17 -19 -42 l7 -22 18 23 c11 13 19 29 19 37 0 7 16 52 35
100 19 48 33 89 31 91 -2 2 -16 -28 -31 -66z"/>
<path d="M463 1094 c-9 -24 10 -34 32 -18 17 13 18 16 5 24 -21 14 -30 12 -37
-6z"/>
<path d="M2246 1083 c-20 -22 -23 -30 -13 -42 10 -12 12 -11 15 7 4 25 12 27
34 10 21 -18 29 -46 15 -52 -9 -3 -8 -5 1 -5 7 -1 10 -5 7 -11 -3 -5 -1 -10 5
-10 22 0 21 30 -4 79 -15 28 -28 51 -31 51 -2 0 -15 -12 -29 -27z"/>
<path d="M356 963 c-16 -71 -30 -136 -33 -145 -3 -11 1 -18 11 -18 10 0 15 11
15 38 0 41 3 59 25 136 20 73 27 116 18 116 -4 0 -20 -57 -36 -127z"/>
<path d="M2114 1061 c2 -22 -1 -31 -11 -31 -8 0 -13 6 -12 13 3 26 -1 36 -14
31 -9 -3 -12 -16 -9 -36 4 -24 -1 -35 -19 -50 -23 -19 -17 -19 25 -2 10 4 15
0 14 -13 -2 -35 53 -231 82 -292 17 -34 30 -68 30 -76 0 -7 5 -17 10 -20 6 -3
10 -12 10 -20 0 -8 15 -47 34 -87 19 -40 46 -103 61 -140 l28 -68 -24 -20 -24
-21 28 17 c15 9 29 15 30 13 24 -37 67 -112 67 -119 0 -4 7 -10 15 -14 16 -6
22 28 7 38 -21 12 -104 172 -148 282 -26 65 -52 122 -57 125 -5 4 -7 14 -4 23
4 9 3 16 -2 16 -10 0 -55 91 -76 155 -9 28 -26 93 -36 145 -18 85 -19 95 -5
106 18 12 22 59 6 69 -6 4 -8 -6 -6 -24z"/>
<path d="M430 1068 c0 -7 15 -22 33 -34 40 -26 97 -46 97 -34 0 5 -16 14 -35
20 -20 6 -49 23 -65 37 -19 16 -30 20 -30 11z"/>
<path d="M90 1043 c1 -26 20 -63 33 -63 4 0 2 12 -3 26 -14 37 -13 49 5 34 8
-7 15 -28 15 -46 0 -19 4 -34 9 -34 13 0 21 53 9 68 -8 9 -4 12 15 12 14 0 28
4 31 9 4 5 -9 6 -28 1 -26 -6 -36 -4 -40 6 -3 8 -15 14 -26 14 -15 0 -20 -6
-20 -27z"/>
<path d="M2154 1042 c5 -14 1 -24 -11 -31 -17 -10 -16 -10 3 -11 22 0 62 36
51 47 -4 3 -7 1 -7 -5 0 -7 -4 -12 -10 -12 -5 0 -9 5 -7 11 1 6 -4 14 -12 16
-9 4 -11 0 -7 -15z"/>
<path d="M269 1023 c-6 -16 -12 -41 -14 -58 -2 -16 -12 -51 -23 -77 -11 -25
-17 -49 -14 -53 4 -4 -9 -5 -28 -1 -33 6 -34 5 -10 -6 29 -15 42 -30 31 -38
-5 -3 -11 -16 -15 -30 -3 -14 -3 -19 0 -12 3 6 11 12 18 12 10 0 40 85 93 273
9 29 -26 20 -38 -10z"/>
<path d="M2653 1026 l-23 -22 21 -17 c17 -15 18 -21 8 -33 -10 -12 -9 -13 5
-8 10 4 15 13 12 20 -3 8 -9 21 -12 29 -3 8 -2 15 4 15 5 0 17 -18 25 -39 9
-22 25 -45 35 -53 10 -7 24 -22 30 -33 9 -18 5 -23 -28 -43 -25 -14 -37 -27
-34 -36 3 -8 1 -17 -5 -21 -6 -3 -11 -13 -11 -20 0 -12 4 -11 20 2 11 10 20
21 20 25 0 4 14 21 30 36 37 36 38 55 4 85 -15 12 -38 47 -53 78 l-26 56 -22
-21z"/>
<path d="M411 1002 c-23 -85 -24 -102 -7 -102 9 0 15 3 14 8 -5 17 13 73 21
67 5 -3 13 -1 16 5 4 7 19 2 41 -15 32 -25 34 -25 34 -6 0 12 -6 21 -13 21 -7
0 -28 13 -47 30 -19 16 -38 29 -42 30 -4 0 -12 -17 -17 -38z"/>
<path d="M1916 1015 c2 -14 0 -25 -6 -25 -5 0 -10 -9 -10 -21 0 -11 -4 -28 -9
-37 -13 -27 -22 -84 -11 -77 5 3 14 -4 20 -15 6 -11 16 -17 22 -14 6 4 8 3 4
-4 -3 -6 5 -43 18 -84 14 -44 20 -77 15 -84 -5 -7 -1 -42 11 -89 11 -43 20
-92 20 -110 0 -17 5 -36 11 -42 8 -8 8 -17 0 -31 -16 -29 -14 -34 9 -27 24 8
29 -22 5 -31 -22 -9 -18 -24 5 -24 12 0 20 -7 20 -17 0 -10 4 -24 9 -32 6 -9
10 -1 13 27 2 22 0 38 -3 36 -4 -2 -5 4 -2 14 2 10 -5 39 -17 66 -11 27 -18
57 -14 68 3 10 1 24 -4 31 -8 11 -42 124 -42 141 0 4 5 4 10 1 15 -9 12 12 -5
28 -8 8 -12 17 -9 20 3 2 -4 38 -16 78 -11 41 -20 75 -20 77 0 17 -3 19 -20
15 -23 -6 -27 9 -7 26 10 8 17 7 25 -1 15 -15 24 -6 16 15 -4 12 -13 15 -30
11 -15 -4 -24 -2 -24 6 0 7 6 10 14 7 8 -3 16 2 19 14 3 13 14 19 32 19 24 0
26 3 21 25 -8 31 1 33 14 3 9 -22 9 -22 9 3 1 20 7 28 27 33 42 11 23 16 -21
6 -31 -7 -41 -6 -52 8 -12 15 -13 14 -3 -5 9 -20 8 -23 -10 -23 -11 0 -20 6
-20 14 0 8 -4 17 -9 21 -6 3 -8 -6 -5 -20z"/>
<path d="M301 960 c-12 -41 -29 -95 -36 -120 -8 -25 -17 -65 -19 -90 -3 -25
-3 -36 0 -25 12 45 47 164 66 223 11 34 18 68 15 75 -2 6 -14 -22 -26 -63z"/>
<path d="M70 1002 c0 -13 9 -35 20 -49 11 -14 20 -33 20 -41 0 -12 3 -13 11
-5 8 8 2 26 -20 64 -24 42 -31 49 -31 31z"/>
<path d="M2171 983 c-20 -13 -25 -13 -33 -2 -7 10 -8 7 -4 -11 3 -14 9 -49 12
-77 6 -44 10 -53 26 -53 18 0 19 5 13 60 -5 43 -3 65 5 75 19 22 7 27 -19 8z"/>
<path d="M577 969 c-9 -6 -17 -20 -16 -32 1 -21 2 -20 9 3 7 22 8 20 9 -15 1
-22 -3 -55 -8 -73 -6 -19 -6 -32 0 -32 5 0 10 10 13 23 25 139 25 144 -7 126z"/>
<path d="M28 930 c-3 -18 1 -35 9 -41 7 -6 13 -17 13 -23 0 -6 12 -24 26 -41
14 -16 22 -24 18 -16 -5 10 -3 12 5 6 7 -4 11 -16 8 -26 -3 -11 -2 -19 3 -19
4 0 10 -13 14 -30 4 -24 11 -30 31 -30 15 0 35 -5 46 -10 15 -8 19 -7 19 5 0
8 -7 16 -15 16 -8 1 -19 3 -25 4 -5 1 -19 3 -31 4 -11 0 -17 6 -14 12 9 14 -4
101 -14 95 -4 -3 -13 12 -20 33 -11 39 -46 91 -61 91 -4 0 -10 -14 -12 -30z"/>
<path d="M2057 946 c-16 -12 -16 -14 -1 -20 10 -4 14 -13 11 -25 -2 -10 -1
-24 3 -30 4 -7 8 11 9 39 1 27 0 50 -1 50 -2 0 -11 -7 -21 -14z"/>
<path d="M2011 934 c-1 -11 16 -60 64 -188 18 -48 21 -65 11 -57 -8 7 -18 26
-21 42 -5 22 -12 29 -28 28 -18 -1 -19 -2 -4 -6 14 -4 15 -8 7 -18 -8 -9 -8
-15 0 -20 5 -3 10 -20 10 -37 0 -20 4 -28 13 -25 6 3 20 8 30 12 10 4 17 3 17
-3 0 -6 -25 -19 -55 -28 -30 -10 -55 -21 -55 -25 0 -4 20 -1 45 7 45 13 46 13
55 -12 6 -14 10 -29 10 -34 0 -5 5 -12 11 -16 9 -5 10 1 5 20 -4 18 -3 25 4
21 13 -8 14 -12 -11 75 -12 41 -22 81 -22 88 0 6 -4 12 -8 12 -4 0 -6 17 -4
38 2 30 2 32 -4 8 -6 -28 -7 -27 -29 30 -35 88 -41 100 -41 88z"/>
<path d="M2665 930 c-3 -5 -1 -10 4 -10 6 0 11 -7 11 -16 0 -11 6 -13 19 -9
15 5 18 2 14 -13 -6 -23 7 -34 27 -22 11 7 7 16 -16 43 -30 36 -48 45 -59 27z"/>
<path d="M1970 917 c0 -7 4 -17 9 -22 4 -6 14 -31 21 -57 7 -27 17 -48 22 -48
6 0 7 10 4 23 -4 12 -12 43 -19 70 -6 26 -17 47 -24 47 -7 0 -13 -6 -13 -13z"/>
<path d="M2875 896 c10 -16 15 -41 13 -74 -2 -28 1 -50 5 -49 5 1 10 27 12 57
3 44 0 58 -15 72 -27 25 -33 22 -15 -6z"/>
<path d="M2261 905 c-1 -19 36 -88 41 -75 2 7 22 16 43 21 l40 8 -46 -3 c-44
-3 -48 -1 -62 28 -9 17 -16 27 -16 21z"/>
<path d="M520 891 c0 -7 -4 -10 -9 -6 -5 3 -12 -4 -16 -15 -4 -12 -11 -17 -18
-14 -7 4 -9 4 -5 -1 4 -4 3 -13 -2 -20 -7 -8 -2 -19 15 -35 21 -19 25 -21 25
-7 0 9 -4 17 -9 17 -5 0 -7 9 -4 21 4 14 8 17 13 9 5 -8 10 -1 15 19 4 18 4
35 1 38 -3 4 -6 1 -6 -6z"/>
<path d="M374 863 c-10 -47 -26 -83 -34 -78 -5 3 -11 1 -14 -4 -4 -5 -2 -12 2
-15 5 -3 5 -30 0 -63 -6 -39 -6 -59 1 -61 6 -2 11 -8 11 -13 0 -6 -4 -7 -10
-4 -5 3 -10 5 -10 3 0 -31 -25 -186 -40 -245 -34 -141 -31 -159 33 -205 l30
-22 -5 22 c-4 12 -2 22 3 22 18 0 9 22 -11 27 -11 3 -18 9 -15 13 3 5 15 6 27
2 19 -5 21 -2 15 30 -3 21 -1 41 6 48 9 10 9 14 0 17 -7 3 -13 9 -13 14 0 6 5
7 10 4 6 -3 10 -2 10 4 0 5 -6 12 -12 14 -10 4 -9 8 2 16 11 8 12 11 2 11 -10
0 -10 4 2 16 18 18 20 30 6 39 -14 9 -13 78 2 93 17 17 28 15 28 -5 0 -15 2
-16 10 -3 15 23 12 28 -20 35 -43 10 -41 39 3 32 17 -3 40 -8 50 -12 9 -4 17
-3 17 3 0 11 -53 32 -81 32 -16 0 -19 8 -19 55 0 53 1 55 28 55 15 -1 45 -7
67 -15 51 -19 54 -18 28 0 -12 8 -44 20 -72 26 -62 13 -69 32 -8 23 45 -7 77
-20 90 -38 5 -6 6 2 2 19 -6 28 -20 44 -37 45 -5 0 -8 -4 -8 -10 0 -13 -37
-13 -44 -1 -4 5 0 12 6 14 7 3 3 6 -9 6 -13 1 -23 7 -23 15 0 8 6 14 13 13 6
0 21 1 32 2 16 2 15 4 -10 16 l-30 13 30 2 c26 1 27 3 10 10 -34 15 -44 11
-51 -17z m-39 -355 c-8 -90 -41 -253 -55 -276 -14 -22 -4 54 20 163 10 44 21
104 25 133 10 78 18 63 10 -20z"/>
<path d="M852 835 c-7 -22 -16 -46 -18 -52 -3 -7 -1 -13 5 -13 7 0 14 8 18 18
3 9 18 27 32 39 14 11 23 25 19 29 -4 4 -14 1 -22 -5 -11 -10 -15 -9 -18 6 -2
12 -8 4 -16 -22z"/>
<path d="M2636 835 c23 -30 44 -45 44 -30 0 7 -58 65 -65 65 -3 0 6 -16 21
-35z"/>
<path d="M2236 833 c-11 -15 -14 -23 -7 -19 9 6 10 0 5 -21 -4 -15 -9 -30 -11
-33 -7 -8 -23 24 -23 48 0 15 -5 22 -12 20 -25 -9 -19 -39 21 -123 23 -46 41
-89 41 -94 0 -6 5 -11 10 -11 6 0 10 9 10 20 0 11 -3 20 -8 20 -15 0 -34 60
-23 73 5 7 10 22 11 32 0 17 6 67 9 85 1 3 6 -2 11 -10 5 -8 10 -10 10 -4 0 5
-6 18 -12 27 -12 14 -15 13 -32 -10z"/>
<path d="M1860 813 c0 -15 7 -37 15 -47 8 -11 13 -29 9 -40 -4 -16 -3 -17 4
-7 8 11 13 7 26 -17 24 -46 40 -50 20 -5 -9 21 -24 56 -32 78 -9 22 -22 46
-29 53 -11 11 -13 8 -13 -15z"/>
<path d="M2780 796 c0 -8 5 -27 10 -42 9 -21 7 -29 -7 -40 -24 -17 -4 -39 26
-29 21 6 30 25 12 25 -5 0 -12 20 -15 45 -7 42 -26 73 -26 41z"/>
<path d="M556 792 c-3 -5 -8 -28 -12 -51 -5 -30 -11 -41 -20 -37 -8 3 -14 1
-14 -4 0 -6 5 -10 10 -10 7 0 8 -19 5 -52 -5 -39 -4 -49 4 -38 6 8 11 28 11
43 0 27 2 28 30 22 19 -4 30 -3 30 4 0 6 -9 11 -19 11 -22 0 -36 16 -22 24 5
3 9 21 9 40 0 19 3 39 7 45 3 6 2 11 -4 11 -5 0 -12 -4 -15 -8z"/>
<path d="M864 775 c-12 -18 -22 -24 -35 -20 -13 4 -19 1 -19 -9 0 -9 7 -16 15
-16 24 0 17 -33 -15 -67 -17 -18 -30 -40 -29 -50 0 -16 1 -16 9 2 7 15 9 10 9
-22 1 -24 5 -43 10 -43 5 0 7 10 5 23 -4 22 -4 22 8 -2 10 -20 9 -25 -7 -38
-17 -13 -17 -15 -2 -10 14 5 17 0 18 -26 0 -18 2 -43 4 -57 2 -14 4 -51 6 -82
1 -40 6 -58 15 -58 10 0 12 15 9 61 -3 33 -7 65 -10 69 -3 5 8 16 26 25 17 9
29 19 26 21 -3 3 -14 0 -26 -7 -11 -7 -22 -11 -25 -8 -7 7 -18 116 -17 158 1
19 5 41 10 49 12 21 28 -51 27 -121 -1 -34 3 -56 9 -54 6 2 9 24 8 48 -1 24
-3 92 -5 151 -2 60 -4 108 -5 108 -2 0 -10 -11 -19 -25z"/>
<path d="M2748 766 c-10 -7 -18 -16 -18 -20 0 -3 8 -6 18 -6 14 0 15 -2 2 -10
-12 -8 -11 -10 6 -10 17 0 20 5 16 30 -2 17 -5 30 -6 30 0 0 -9 -7 -18 -14z"/>
<path d="M2974 758 c3 -13 6 -29 6 -35 0 -7 5 -13 10 -13 6 0 10 16 10 35 0
26 -4 35 -16 35 -12 0 -15 -6 -10 -22z"/>
<path d="M1765 717 c0 -53 17 -98 32 -84 4 5 0 13 -10 18 -21 12 -23 45 -2 52
11 5 12 12 4 37 -16 44 -24 37 -24 -23z"/>
<path d="M31 746 c-9 -11 -9 -15 1 -19 10 -4 11 -7 1 -18 -16 -16 -17 -29 -3
-29 6 0 10 7 10 15 0 8 5 15 10 15 6 0 13 -7 16 -15 8 -21 21 -19 34 5 8 15 6
24 -9 39 -18 18 -20 18 -36 2 -17 -15 -17 -15 -12 2 8 21 3 22 -12 3z"/>
<path d="M2353 743 c-24 -9 -13 -23 17 -23 32 0 40 14 14 24 -9 3 -16 6 -17 5
-1 0 -8 -3 -14 -6z"/>
<path d="M2295 716 c-10 -7 -20 -26 -22 -42 l-4 -29 22 35 c12 19 27 38 33 42
7 5 7 8 0 8 -5 0 -19 -6 -29 -14z"/>
<path d="M2671 693 c-49 -41 -90 -112 -71 -123 16 -10 4 -30 -16 -30 -20 0
-10 -36 19 -67 22 -25 37 -29 37 -12 0 15 71 111 78 105 2 -3 -1 -14 -9 -23
-13 -16 -12 -17 4 -4 22 18 22 26 -5 50 -23 22 -43 18 -34 -6 3 -8 -2 -26 -11
-41 -24 -36 -43 -56 -43 -43 0 6 -7 8 -16 4 -14 -5 -15 -3 -5 15 17 32 34 75
36 94 1 9 10 28 19 43 l18 28 41 -41 c50 -50 45 -65 -6 -18 -20 19 -37 30 -37
26 0 -4 17 -22 38 -42 l37 -34 23 23 c13 13 27 21 32 18 4 -3 6 3 3 13 -3 12
4 23 21 32 26 13 35 30 17 30 -11 0 -30 -18 -60 -56 l-20 -25 -35 37 c-35 37
-50 68 -22 45 19 -16 40 9 22 25 -10 9 -23 3 -55 -23z"/>
<path d="M2830 724 c0 -4 10 -16 23 -28 31 -29 67 -81 67 -98 0 -7 -27 -26
-60 -42 -33 -16 -60 -33 -60 -38 0 -10 37 -2 55 12 6 4 22 10 38 14 15 3 27
11 27 17 0 6 5 7 10 4 6 -3 10 -14 10 -24 0 -21 47 -68 57 -57 4 4 -5 18 -20
32 -32 29 -36 64 -8 64 21 0 37 17 27 27 -3 4 -17 1 -31 -5 -23 -10 -26 -9
-41 21 -32 63 -94 129 -94 101z"/>
<path d="M1824 709 c-3 -6 -1 -16 5 -22 15 -15 14 -30 -1 -21 -8 5 -8 1 2 -12
8 -10 15 -20 16 -22 0 -1 2 18 2 43 2 43 -9 58 -24 34z"/>
<path d="M106 686 c-3 -13 -2 -34 2 -46 l8 -21 19 20 c15 18 16 25 7 46 -15
32 -28 32 -36 1z"/>
<path d="M205 566 c-27 -128 -30 -135 -59 -149 -27 -14 -28 -16 -9 -16 12 -1
25 4 28 9 4 6 10 8 14 6 8 -6 54 174 53 213 0 14 5 29 10 32 7 4 7 13 1 23 -7
12 -17 -20 -38 -118z"/>
<path d="M1897 613 c3 -51 3 -93 0 -93 -3 0 -15 20 -26 44 -10 24 -29 50 -42
56 -20 11 -21 11 -16 -11 4 -13 7 -32 7 -41 0 -10 5 -18 11 -18 6 0 9 7 5 15
-3 8 -1 15 5 15 9 0 49 -82 49 -101 0 -6 12 -36 26 -67 14 -31 31 -68 36 -82
6 -14 12 -20 15 -13 2 6 -3 23 -12 37 -9 13 -25 53 -35 88 -16 50 -17 70 -9
101 11 40 5 118 -10 145 -7 11 -8 -15 -4 -75z"/>
<path d="M2358 693 c-10 -3 -18 -9 -18 -14 0 -6 4 -7 10 -4 11 7 16 -13 29
-114 9 -70 9 -75 -12 -92 -12 -10 -25 -18 -29 -19 -16 0 -7 18 15 34 l22 17
-24 -12 c-21 -10 -23 -9 -18 5 4 9 2 16 -4 16 -6 0 -7 5 -4 10 3 6 -1 17 -9
26 -9 8 -16 24 -16 35 0 19 -14 26 -24 11 -8 -13 55 -182 91 -244 28 -48 37
-57 49 -47 21 17 17 31 -7 24 -15 -5 -19 -4 -15 4 4 6 14 11 22 11 10 0 12 5
7 13 -8 13 -10 18 -12 45 -2 16 -2 16 -12 0 -11 -19 -39 -25 -39 -8 0 5 9 15
20 22 21 13 27 38 10 38 -6 0 -13 -7 -16 -15 -7 -16 -34 -21 -34 -6 0 11 51
53 57 47 2 -2 24 -61 48 -132 45 -128 65 -167 65 -128 0 11 -4 24 -9 30 -5 5
-16 34 -26 64 -10 30 -31 88 -47 129 -16 41 -27 83 -25 93 3 10 1 21 -4 24 -5
3 -9 34 -9 69 0 67 -4 74 -32 68z"/>
<path d="M2735 680 c-10 -17 22 -47 35 -34 7 7 4 16 -9 28 -14 12 -21 14 -26
6z"/>
<path d="M170 666 c0 -8 -3 -21 -6 -30 -3 -9 -1 -16 5 -16 6 0 11 8 11 17 0 9
3 14 6 10 9 -8 -6 -48 -16 -42 -4 3 -8 -27 -7 -66 1 -60 -2 -74 -18 -86 -17
-12 -21 -12 -31 2 -20 27 -27 87 -12 97 14 10 14 10 -37 -6 -16 -4 -21 -1 -22
14 -1 11 3 23 9 26 7 5 9 1 5 -9 -4 -11 -1 -17 8 -17 20 0 24 12 13 40 -7 19
-11 22 -18 10 -7 -12 -12 -11 -29 5 -12 10 -24 15 -28 11 -4 -4 -3 -10 3 -14
6 -4 14 -20 18 -37 3 -16 8 -35 9 -42 4 -18 17 -29 17 -15 0 7 5 12 11 12 6 0
8 -9 4 -20 -4 -13 -1 -22 9 -26 9 -3 13 -10 10 -16 -3 -5 2 -18 11 -28 17 -19
18 -19 45 0 20 15 30 32 35 63 4 23 14 68 22 100 14 50 14 60 2 68 -20 13 -29
11 -29 -5z"/>
<path d="M2300 659 c-15 -28 -4 -38 15 -13 17 22 19 34 5 34 -5 0 -14 -9 -20
-21z"/>
<path d="M734 613 c-27 -24 -58 -93 -56 -123 1 -20 0 -22 -9 -10 -8 12 -10 12
-7 -4 4 -27 22 -22 26 8 2 14 11 26 24 29 11 3 17 10 14 15 -3 6 -3 18 1 28 6
16 7 16 14 -2 6 -15 8 -12 8 14 1 19 5 31 11 27 6 -3 10 3 10 14 0 26 -11 27
-36 4z"/>
<path d="M470 587 c0 -11 68 -47 90 -47 23 0 7 18 -35 38 -53 26 -55 26 -55 9z"/>
<path d="M2153 583 c-7 -2 -13 -11 -13 -18 0 -8 -9 -23 -21 -34 -12 -11 -16
-22 -11 -25 18 -11 42 6 42 29 0 13 7 31 16 39 15 16 11 19 -13 9z"/>
<path d="M2064 547 c4 -27 1 -40 -10 -44 -24 -9 -15 -24 12 -19 34 6 39 12 27
28 -6 7 -15 27 -22 43 l-11 30 4 -38z"/>
<path d="M432 476 c-30 -102 -27 -107 8 -11 34 93 32 85 22 85 -5 0 -19 -33
-30 -74z"/>
<path d="M460 463 c-13 -43 -23 -81 -22 -85 1 -5 -3 -8 -9 -8 -5 0 -7 -4 -4
-10 12 -20 31 -10 33 18 3 39 38 126 52 130 10 4 11 -2 5 -19 -4 -13 -8 -39
-8 -57 0 -20 -3 -28 -9 -20 -7 12 -12 -10 -11 -49 1 -7 -4 -13 -9 -13 -6 0 -4
-8 3 -17 12 -15 12 -16 -3 -10 -10 3 -18 2 -18 -3 0 -6 5 -10 10 -10 6 0 10
-4 10 -10 0 -5 -7 -10 -15 -10 -18 0 -18 -5 -5 -30 8 -16 7 -18 -4 -14 -9 3
-19 -3 -26 -16 -10 -18 -8 -24 7 -35 19 -14 33 -11 33 8 0 12 50 181 75 256 8
24 14 45 13 46 -2 0 -16 7 -33 15 -16 8 -33 16 -36 17 -3 2 -16 -31 -29 -74z"/>
<path d="M2870 503 c-25 -14 -47 -27 -49 -29 -5 -5 43 -83 73 -119 14 -16 25
-25 26 -18 0 6 -18 33 -40 58 l-41 47 25 23 c32 30 58 39 68 23 12 -19 10 -30
-4 -22 -8 4 -10 3 -5 -2 5 -5 12 -9 15 -10 24 -3 42 -18 33 -28 -6 -7 -3 -19
9 -34 17 -21 19 -21 17 -3 0 11 -5 17 -9 15 -11 -7 -10 10 2 22 7 7 -2 23 -25
48 -19 21 -35 42 -35 47 0 14 -11 10 -60 -18z"/>
<path d="M1846 488 c-3 -19 -4 -43 0 -52 7 -18 44 -22 44 -5 0 6 -7 9 -15 5
-12 -4 -14 0 -10 17 3 12 2 33 -3 47 -9 23 -9 23 -16 -12z"/>
<path d="M2145 490 c-16 -18 -16 -22 -3 -37 8 -10 23 -46 33 -80 10 -36 22
-60 28 -56 6 3 7 1 3 -6 -4 -6 -3 -17 2 -24 5 -7 17 -37 27 -67 10 -30 21 -57
25 -60 7 -5 40 -97 40 -111 0 -3 -13 -12 -30 -19 -16 -7 -30 -17 -30 -22 0
-10 39 -1 54 13 6 5 16 3 25 -5 14 -13 16 -10 18 30 1 37 -1 45 -14 40 -11 -4
-13 -2 -9 9 3 8 -13 54 -35 102 -23 49 -58 138 -79 200 -36 109 -38 112 -55
93z"/>
<path d="M549 410 c-14 -49 -23 -90 -19 -90 3 0 17 41 31 90 14 50 23 90 19
90 -3 0 -17 -40 -31 -90z"/>
<path d="M2725 487 c-11 -7 -22 -13 -24 -14 -2 -2 2 -9 9 -18 11 -13 15 -12
36 10 13 15 24 28 24 31 0 8 -25 3 -45 -9z"/>
<path d="M795 450 c-4 -12 -5 -38 -4 -58 2 -20 0 -73 -4 -117 -5 -44 -10 -117
-12 -163 -4 -80 -4 -82 16 -71 11 5 25 8 32 6 7 -3 -3 -11 -20 -18 -18 -8 -33
-17 -33 -21 0 -12 14 -10 29 4 11 10 14 10 18 1 3 -7 9 -13 15 -13 6 0 7 20 3
55 -3 30 -8 100 -10 155 -2 55 -6 103 -8 107 -3 5 -5 41 -4 81 2 71 -5 92 -18
52z"/>
<path d="M2084 458 l-22 -10 22 -57 c23 -58 55 -121 56 -110 0 4 -11 31 -24
60 -13 30 -27 65 -31 79 -7 22 -6 23 9 11 14 -12 16 -10 16 13 0 14 -1 26 -2
25 -2 0 -13 -5 -24 -11z"/>
<path d="M2758 441 c-21 -20 -24 -39 -5 -23 16 14 30 5 56 -38 11 -19 21 -30
21 -25 0 6 -6 19 -14 30 -7 11 -16 32 -20 48 -7 31 -14 33 -38 8z"/>
<path d="M707 443 c-4 -3 -7 -14 -7 -24 0 -10 -5 -21 -12 -25 -8 -5 -9 0 -6
14 4 12 2 22 -3 22 -5 0 -9 -14 -9 -31 0 -19 -7 -37 -17 -45 -16 -12 -16 -13
-2 -14 9 0 19 3 23 8 4 4 12 8 17 8 22 3 23 6 4 14 -17 7 -17 9 -2 9 9 1 17 6
17 11 0 6 9 10 21 10 11 0 18 4 15 9 -4 5 -1 11 5 13 7 2 10 10 8 17 -4 11 -8
10 -21 -3 -21 -20 -32 -21 -24 -1 6 16 3 19 -7 8z"/>
<path d="M2880 432 c0 -5 20 -30 44 -55 24 -26 41 -47 38 -47 -3 0 -1 -5 5
-11 6 -6 16 -8 23 -4 14 9 -20 45 -34 37 -5 -3 -7 2 -3 11 4 10 -6 26 -29 46
-36 33 -44 36 -44 23z"/>
<path d="M1827 364 c-3 -26 0 -59 7 -74 9 -23 15 -26 34 -19 30 11 29 33 -2
25 -17 -4 -26 -1 -30 10 -11 29 -6 32 25 21 27 -11 32 -10 45 8 20 28 14 48
-18 52 -32 4 -44 -10 -22 -28 13 -10 17 -10 25 2 7 12 9 11 9 -2 0 -23 -24
-30 -45 -15 -12 9 -16 21 -13 39 3 15 2 27 -2 27 -4 0 -10 -21 -13 -46z"/>
<path d="M1779 359 c-10 -32 -10 -53 0 -102 11 -57 31 -100 31 -68 0 7 5 9 10
6 17 -11 11 7 -7 21 -17 13 -17 15 0 28 22 17 22 25 -2 19 -18 -5 -20 0 -20
48 1 30 5 59 10 66 7 7 6 13 0 17 -6 4 -16 -12 -22 -35z"/>
<path d="M115 381 c3 -6 -3 -15 -12 -20 -17 -10 -17 -12 1 -25 20 -16 14 -38
-8 -30 -8 3 -16 -4 -19 -17 -7 -27 -8 -25 20 -33 19 -6 23 -1 34 48 12 55 8
86 -11 86 -6 0 -9 -4 -5 -9z"/>
<path d="M726 368 c-9 -12 -16 -29 -15 -38 0 -8 6 -3 13 13 7 15 15 25 18 22
3 -3 8 1 11 10 9 23 -10 18 -27 -7z"/>
<path d="M44 369 c-3 -6 -1 -16 5 -22 9 -9 14 -8 21 3 5 8 10 18 10 23 0 11
-28 8 -36 -4z"/>
<path d="M763 290 c0 -36 2 -50 4 -32 2 17 2 47 0 65 -2 17 -4 3 -4 -33z"/>
<path d="M150 318 c0 -15 -5 -39 -10 -53 -8 -20 -7 -26 2 -23 17 6 31 79 18
92 -7 7 -10 2 -10 -16z"/>
<path d="M35 309 c-4 -12 -2 -26 4 -32 6 -6 11 -7 12 -1 0 5 2 19 5 32 5 28
-12 29 -21 1z"/>
<path d="M736 308 c-3 -13 -6 -33 -6 -44 0 -16 -8 -23 -30 -27 -16 -4 -30 -11
-30 -17 0 -13 23 -13 53 1 19 9 23 18 24 60 2 54 -1 61 -11 27z"/>
<path d="M2930 322 c0 -21 43 -72 59 -72 13 1 12 4 -4 18 -11 9 -28 28 -38 42
-9 13 -17 19 -17 12z"/>
<path d="M497 233 c-13 -43 -27 -91 -31 -108 -5 -26 -5 -27 5 -11 14 23 60
188 55 194 -3 2 -16 -31 -29 -75z"/>
<path d="M1970 293 c0 -5 24 -64 54 -129 29 -65 57 -129 60 -141 4 -13 11 -23
16 -23 6 0 5 11 0 26 -13 32 0 50 41 59 16 4 29 11 29 17 0 6 3 9 6 5 3 -3 11
-1 18 4 6 5 20 16 31 24 11 7 17 17 13 20 -4 4 -21 -4 -38 -19 -17 -14 -36
-26 -42 -26 -5 0 -23 -10 -40 -21 -16 -12 -33 -18 -37 -13 -4 5 -27 54 -51
109 -43 99 -60 129 -60 108z"/>
<path d="M2426 281 c-4 -5 9 -42 28 -83 18 -40 43 -101 56 -135 12 -35 28 -63
36 -63 13 0 9 14 -45 153 -6 15 -15 27 -21 27 -6 0 -8 10 -4 25 3 14 2 25 -4
25 -5 0 -15 14 -21 30 -10 31 -16 36 -25 21z"/>
<path d="M857 273 c-4 -7 -4 -49 0 -95 4 -46 6 -86 5 -90 -1 -5 4 -8 12 -8 10
0 12 11 9 48 -13 124 -19 156 -26 145z"/>
<path d="M1930 270 c-12 -7 -11 -13 10 -34 13 -15 20 -26 15 -26 -5 0 1 -10
13 -23 12 -13 19 -27 15 -32 -5 -4 -3 -5 4 -1 9 5 7 19 -8 59 -25 63 -30 69
-49 57z"/>
<path d="M175 202 c-3 -37 -11 -85 -17 -107 -5 -22 -9 -40 -8 -40 1 0 -3 -12
-9 -27 -13 -34 -1 -37 18 -6 13 21 14 22 21 4 3 -11 17 -21 30 -23 l24 -4 -27
29 c-26 27 -35 61 -20 76 11 10 14 154 4 160 -5 3 -12 -25 -16 -62z"/>
<path d="M10 250 c0 -5 9 -10 19 -10 11 0 22 -4 26 -9 3 -5 19 -12 35 -16 34
-7 36 -13 15 -41 -16 -22 -19 -34 -7 -34 9 0 42 64 42 80 0 7 -50 22 -82 25
-3 0 -10 3 -14 8 -11 10 -34 9 -34 -3z"/>
<path d="M390 239 c-12 -22 -8 -35 8 -25 13 8 22 46 11 46 -4 0 -13 -9 -19
-21z"/>
<path d="M1880 245 c0 -13 32 -66 37 -62 10 11 -9 67 -23 67 -8 0 -14 -2 -14
-5z"/>
<path d="M2690 237 c0 -36 83 -136 96 -116 4 7 -6 23 -23 38 -17 15 -40 42
-52 61 -14 24 -21 29 -21 17z"/>
<path d="M1860 229 c0 -8 4 -19 9 -24 4 -6 21 -43 36 -83 16 -39 30 -70 32
-68 5 5 -57 167 -69 181 -5 5 -8 3 -8 -6z"/>
<path d="M703 188 c-34 -11 -48 -48 -18 -48 19 0 19 -14 0 -30 -11 -9 -12 -16
-4 -26 6 -7 8 -22 4 -34 -4 -12 -2 -20 6 -20 8 0 7 -5 -2 -17 -12 -14 -12 -16
1 -11 14 5 18 28 20 120 1 28 5 36 16 31 10 -4 14 2 14 21 0 14 -1 26 -2 25
-2 -1 -18 -6 -35 -11z"/>
<path d="M2510 183 c0 -13 64 -162 68 -158 6 6 -52 165 -60 165 -5 0 -8 -3 -8
-7z"/>
<path d="M2920 150 c-37 -34 -49 -40 -73 -34 -37 8 -29 -9 15 -30 38 -19 38
-19 38 -2 0 7 18 30 40 50 38 34 50 56 32 56 -5 0 -28 -18 -52 -40z"/>
<path d="M241 154 c-14 -32 -14 -34 6 -34 9 0 13 3 10 7 -4 3 0 11 8 17 11 9
11 13 1 23 -11 9 -16 6 -25 -13z"/>
<path d="M1927 158 c4 -7 8 -15 9 -18 11 -37 18 -49 24 -45 9 6 -21 75 -33 75
-4 0 -5 -6 0 -12z"/>
<path d="M2124 153 c1 -13 -6 -18 -25 -16 -22 1 -26 -2 -22 -18 6 -23 3 -22
40 -4 23 12 30 21 26 35 -7 25 -21 26 -19 3z"/>
<path d="M2374 116 c-21 -18 -24 -25 -13 -26 17 0 56 37 47 46 -3 3 -19 -6
-34 -20z"/>
<path d="M2953 97 c-31 -34 -43 -54 -42 -74 l2 -28 4 28 c2 15 13 32 24 38 33
17 60 49 57 66 -2 11 -15 2 -45 -30z"/>
<path d="M0 100 c0 -32 1 -33 17 -17 16 16 16 18 0 34 -16 16 -17 15 -17 -17z"/>
<path d="M38 80 c-43 -41 -50 -58 -14 -35 24 16 61 64 54 69 -2 2 -20 -13 -40
-34z"/>
<path d="M207 97 c-7 -18 74 -97 99 -97 23 0 16 18 -13 37 -16 9 -40 31 -54
47 -21 25 -27 27 -32 13z"/>
<path d="M375 72 c-28 -54 -29 -55 -18 -49 13 8 46 77 41 83 -3 2 -13 -13 -23
-34z"/>
<path d="M2450 107 c0 -2 13 -28 30 -58 16 -30 30 -49 30 -43 0 20 -41 104
-50 104 -6 0 -10 -2 -10 -3z"/>
<path d="M2770 89 c0 -14 40 -30 66 -27 22 3 19 5 -20 19 -25 9 -46 13 -46 8z"/>
<path d="M392 45 c-12 -25 -18 -45 -13 -45 5 0 14 14 21 31 7 17 19 37 27 45
12 12 12 14 1 14 -8 0 -24 -20 -36 -45z"/>
<path d="M450 71 c0 -11 -4 -23 -10 -26 -5 -3 -10 -13 -10 -22 0 -13 3 -13 15
-3 8 7 15 19 15 26 0 8 7 14 15 14 18 0 19 -12 3 -28 -6 -6 -8 -15 -3 -19 4
-5 10 -2 12 5 3 6 9 10 14 7 5 -4 6 1 3 10 -5 11 -2 14 10 9 31 -12 16 14 -18
30 -43 20 -46 20 -46 -3z"/>
<path d="M2026 82 c-3 -5 -2 -21 2 -35 5 -18 11 -24 20 -18 10 6 10 13 -2 35
-7 15 -16 23 -20 18z"/>
<path d="M870 35 c0 -19 5 -35 10 -35 6 0 10 16 10 35 0 19 -4 35 -10 35 -5 0
-10 -16 -10 -35z"/>
<path d="M2684 36 c6 -17 5 -17 -11 -5 -15 12 -16 12 -10 -4 4 -10 7 -21 7
-23 0 -2 43 -4 95 -4 52 0 95 4 95 9 0 16 -33 22 -93 15 -52 -6 -62 -4 -75 12
-14 19 -15 19 -8 0z"/>
</g>
</svg>
